<svg xmlns="http://www.w3.org/2000/svg" width="1000" height="400" viewBox="0 0 1000 400">
  <rect width="1000" height="400" fill="#f3f4f6"/>
  <rect x="55" y="42" width="890" height="316" rx="20" fill="#fff" stroke="#d1d5db" stroke-width="2"/>
  <rect x="92" y="78" width="76" height="76" rx="14" fill="#18181b"/>
  <path d="M110 96h18v40h-18zM132 96h18l-10 40h-18z" fill="#fff"/>
  <circle cx="168" cy="145" r="22" fill="#f4511e"/>
  <path d="M157 139h22v15h-22zM161 135h14l3 4h-20z" fill="#fff"/>
  <text x="205" y="103" font-family="Arial" font-size="28" fill="#27272a">QuickData</text>
  <text x="205" y="145" font-family="Arial" font-size="21" fill="#52525b">Autofill web forms with generated test data.</text>
  <text x="205" y="195" font-family="Arial" font-size="18" fill="#71717a">Fast profiles • Realistic values • One-click autofill</text>
  <rect x="205" y="240" width="180" height="52" rx="26" fill="#fff" stroke="#2563eb" stroke-width="2"/>
  <text x="295" y="273" text-anchor="middle" font-family="Arial" font-size="19" font-weight="600" fill="#2563eb">Source code</text>
  <rect x="830" y="251" width="60" height="30" rx="15" fill="#2563eb"/>
  <circle cx="874" cy="266" r="12" fill="#fff"/>
</svg>
